<svg xmlns="http://www.w3.org/2000/svg" width="16" height="16" viewBox="0 0 16 16"><defs><style>.a{fill:#ca2128;}</style></defs><title>icon-phone</title><path class="a" d="M16,12.64a.73.73,0,0,0,0-.25,1.8,1.8,0,0,0-.6-.46q-.55-.34-1.38-.77l-.83-.45-.3-.2a2.41,2.41,0,0,0-.39-.23.79.79,0,0,0-.33-.08q-.28,0-.73.51l-.89,1q-.44.52-.69.52a.76.76,0,0,1-.26-.05l-.24-.1-.27-.15-.22-.13a11.93,11.93,0,0,1-2.66-2,11.93,11.93,0,0,1-2-2.66l-.13-.22-.15-.27a2.45,2.45,0,0,1-.1-.24.76.76,0,0,1-.05-.26.87.87,0,0,1,.32-.52,6.1,6.1,0,0,1,.7-.6,5.33,5.33,0,0,0,.7-.62.93.93,0,0,0,.32-.57.79.79,0,0,0-.08-.33,2.41,2.41,0,0,0-.23-.39l-.2-.3L5.06,2.4l-.39-.71L4.26.95A6.36,6.36,0,0,0,3.87.31.92.92,0,0,0,3.61,0a.73.73,0,0,0-.25,0A4.12,4.12,0,0,0,1.78.34,2.82,2.82,0,0,0,.53,1.82a5,5,0,0,0-.53,2,3.87,3.87,0,0,0,0,.53q0,.28.08.48a5.13,5.13,0,0,0,.14.52q.1.32.16.46l.2.52.17.47a14,14,0,0,0,3.38,5,14,14,0,0,0,5,3.38l.47.17.52.2.46.16.52.14.48.08a3.87,3.87,0,0,0,.53,0,5,5,0,0,0,2-.53,2.82,2.82,0,0,0,1.48-1.25A4.12,4.12,0,0,0,16,12.64Z"/></svg>