<?xml version="1.0" encoding="utf-8"?>
<!-- Generator: Adobe Illustrator 19.2.1, SVG Export Plug-In . SVG Version: 6.00 Build 0)  -->
<svg version="1.1" xmlns="http://www.w3.org/2000/svg" xmlns:xlink="http://www.w3.org/1999/xlink" x="0px" y="0px"
	 viewBox="0 0 798.7 800" style="enable-background:new 0 0 798.7 800;" xml:space="preserve">
<style type="text/css">
	.st0{fill-rule:evenodd;clip-rule:evenodd;}
	.st1{fill-rule:evenodd;clip-rule:evenodd;fill:#CA2128;}
	.st2{fill-rule:evenodd;clip-rule:evenodd;fill:#FFFFFF;}
</style>
<g id="Layer_1">
	<g>
		<path class="st0" d="M401.1,0h0.4c10.4,0.6,22.1,0.7,32,1.5c10.2,0.8,19.8,2.1,29.4,3.7c37.6,6.4,72.3,16.9,102,31.3
			c14.8,7.2,29.5,15.4,43.8,23.3c26.8,14.8,49.3,33.5,70.2,54.2c8,7.9,15.8,15.7,22.7,24.2c2.4,2.9,5.2,5.4,7.4,8.2
			c27.9,34.9,50.6,74,67,120.6c11,31.1,18.7,66,21.6,103.5c3.8,48.9-3.1,96.6-14.2,136.6c-22.2,80.1-65.1,141.6-118,189.9
			c-13.7,12.5-27.6,23.8-43.2,33.9c-27.3,17.6-57.1,32.5-89.4,45.1c-14.4,5.6-29.6,9.5-45.1,12.7c-10.6,2.2-21,5.4-32,6.7
			c-23.1,2.8-47.4,5.4-71.9,4.5c-5.9-0.2-11.7-1.4-17.5-1.5c-6-0.1-12-0.9-17.9-1.5c-22.5-2.3-43.7-8.2-63.3-13.8
			c-25-7-47.6-17.3-68.9-27.6c-4.4-2.1-8.1-4.8-12.3-7.1c-33.6-18.7-63.4-39.5-87.5-66.7c-9.2-7.8-16.8-17.4-24.6-26.4
			c-23.8-27.8-43.2-59.2-58.5-95.7c-15-36-27.1-74.9-31.6-121.8c-1.5-15.5-2.5-32.6-1.5-49.1c1.9-30.2,5.1-59.2,13-85.3
			c7.8-26,14.8-50.5,25.7-73c32.2-66.5,78.4-119.6,136.3-159c14.6-9.9,29.8-20.1,46.2-27.6c5.6-2.5,11.1-5.7,16.8-8.2
			c23.3-10.3,47.1-18.9,73.7-24.9c13.3-3,26.8-6.3,41.3-7.8C368.4,1.5,385.7,0.5,401.1,0z M391.4,8.9c-46.6,0-88.5,9.6-123.2,22.3
			c-12,4.4-23.2,9.8-34.6,14.5c-11.2,4.6-21.1,11.3-31.6,17.1c-10.4,5.7-20.3,12.8-29.8,19.4c-29.5,20.5-53.8,44.3-75.6,71.1
			c-29.5,36.3-52.3,77-68.9,127c-12.1,36.6-20,80.6-19,126.6c1.3,62.4,15.7,113.6,36.1,159.4c25.1,56.2,63.1,100.7,106.1,138.5
			c6.4,5.7,14.6,10.6,20.9,16c2.3,2,4.9,3.2,7.4,4.8c39.4,24.9,83.4,47.7,138.5,57.3c27.6,4.8,57.7,9.5,88.2,8.2
			c15.2-0.6,30.4-1.8,45.1-3.7c43-5.7,79.9-18.3,113.6-33.1c22.8-10.1,43.9-21.5,62.5-35.4c18.6-13.8,35.1-29.5,51.8-46.2
			c15.9-15.9,31-34.4,43.9-54c38.9-58.9,67.8-129.9,67.8-226c0-61.9-16.2-114.7-36.5-159c-10.5-23-22.3-43.4-35.7-62.2
			c-16.3-22.8-36.1-46.1-57.7-64.4c-13.5-11.4-27.1-21.7-41.7-32c-19-13.5-40.8-24.3-63.3-34.6C513.4,21.2,452.9,6.1,392.1,8.9
			H391.4z"/>
		<path class="st1" d="M392.1,8.9c60.8-2.8,121.3,12.2,163.5,31.6c22.5,10.4,44.3,21.1,63.3,34.6c14.6,10.4,28.2,20.6,41.7,32
			c21.7,18.3,41.4,41.7,57.7,64.4c13.4,18.8,25.2,39.2,35.7,62.2c20.3,44.3,36.5,97.1,36.5,159c0,96.1-28.8,167.1-67.8,226
			c-12.9,19.6-28,38.1-43.9,54c-16.6,16.6-33.2,32.4-51.8,46.2c-18.7,13.9-39.7,25.3-62.5,35.4c-33.6,14.9-70.5,27.4-113.6,33.1
			c-14.7,1.9-29.9,3.1-45.1,3.7c-30.6,1.3-60.7-3.4-88.2-8.2c-55.1-9.7-99.1-32.4-138.5-57.3c-2.6-1.6-5.2-2.9-7.4-4.8
			c-6.3-5.4-14.4-10.4-20.9-16c-43.1-37.8-81-82.3-106.1-138.5C24.3,520.6,10,469.4,8.6,407c-1-46,6.9-90,19-126.6
			c16.6-49.9,39.4-90.7,68.9-127c21.8-26.8,46-50.6,75.6-71.1c9.5-6.6,19.4-13.6,29.8-19.4c10.5-5.8,20.5-12.5,31.6-17.1
			c11.4-4.7,22.6-10.1,34.6-14.5c34.7-12.8,76.6-22.3,123.2-22.3H392.1z M662.1,528.4c12-24.8,22.1-52.3,26.8-83.4
			c10.6-70.4-5.8-135.1-30.5-181.7c-12.9-24.3-27.1-46.5-45.4-64.8c-18.2-18.2-37.8-34.7-60.7-49.5c-22.4-14.5-48.5-25-77.4-32.8
			c-29.2-7.9-65.3-12.2-99.8-9.7c-27.5,2-51.8,9.5-74.5,17.1c-22.4,7.5-42.4,19-61.1,30.5c-18.4,11.4-34.2,26-49.5,42.1
			c-7.6,8-15,15.6-21.6,24.2c-32.7,42.5-58.8,99.2-61.4,168.3c-1.7,44.7,6.9,85,19,117.7c4.1,11,9,21.9,14.5,31.7
			c11.7,20.5,25,40.7,39.8,57.3c10.1,11.3,21,21.4,32,31.3c4.1,3.7,8.7,6.4,13.4,9.7c4.5,3.1,8.5,6.7,13,9.7c4.7,3,9.6,5.7,14.5,8.6
			c9.6,5.6,19.8,11.1,30.5,15.3c21.9,8.6,45,16.5,70,20.5c76,12,141.3-7.9,188-34.6c29.8-17,54.6-36.2,76-61.8
			C635.3,575.3,650.1,553,662.1,528.4z"/>
		<path class="st0" d="M617.8,593.9c-21.3,25.6-46.2,44.8-76,61.8c-46.7,26.7-112.1,46.7-188,34.6c-25-4-48.1-11.9-70-20.5
			c-10.7-4.2-20.9-9.7-30.5-15.3c-4.9-2.9-9.9-5.5-14.5-8.6c-4.5-3-8.6-6.5-13-9.7c-4.7-3.3-9.3-6-13.4-9.7
			c-11-9.9-21.9-19.9-32-31.3c-14.9-16.7-28.1-36.8-39.8-57.3c-5.6-9.7-10.5-20.6-14.5-31.7c-12-32.6-20.7-72.9-19-117.7
			c2.6-69.1,28.8-125.8,61.4-168.3c6.6-8.6,14-16.2,21.6-24.2c15.3-16.1,31.1-30.7,49.5-42.1c18.7-11.6,38.6-23,61.1-30.5
			c22.6-7.6,47-15.1,74.5-17.1c34.5-2.5,70.6,1.8,99.8,9.7c29,7.8,55,18.2,77.4,32.8c22.9,14.9,42.5,31.3,60.7,49.5
			c18.3,18.3,32.6,40.5,45.4,64.8c24.7,46.6,41.1,111.3,30.5,181.7c-4.7,31.1-14.8,58.6-26.8,83.4
			C650.1,553,635.3,575.3,617.8,593.9z M121.4,335.9c-9.2,35.7-10.2,86.6-1.9,123.6c8.4,37.3,21.8,69.6,40.2,97.2
			c30.8,46,70,82.4,123.6,105c21.7,9.2,44.6,17.2,70.7,20.8c13.5,1.9,27,2.6,42.4,3.4c42.5,2,84.2-8.8,113.9-22.7
			c10.6-4.9,21.2-9.9,30.5-15.3c56.7-32.2,102.4-83,125.9-148.9c8-22.6,15-47.2,17.1-74.5c1-12.6,1.6-27.4,0.7-39.8
			c-6.1-87.2-41.6-147-89-193.2c-43.4-40.1-100.4-71.3-178.7-77.1c-11.6-0.9-22.6-0.9-33.5,0c-63.4,5-113.5,26.6-153.4,55.9
			C177.6,210.6,140.3,262.4,121.4,335.9z"/>
		<path class="st0" d="M644.2,494.1c0.7-22.1,2.1-44.2-4.1-63.3c-2.8-8.5-4.5-17-7.4-23.5c-4.2-9.3-10.9-18.8-17.9-26.8
			c-7.1-8.1-14.5-15.7-23.1-21.6c-2.1-1.5-4.8-2.5-7.1-4.1c-14.1-9.8-35.7-18.3-57.7-20.1c-5.6-0.4-13.5-0.5-19.7,0
			c-17.4,1.3-31.1,7.4-45.4,12.7c-4.6,1.7-8.9,4-13.4,5.6c-9.4,3.3-18.9,6.5-29.8,8.6c-16.5,3.2-36.3,5.6-54.4,1.9
			c-6-1.2-12.7-3.8-18.6-6c-16.8-6.2-31.9-18.5-43.2-30.5c-8.2-8.8-13.9-18.9-19-30.2c-4.9-10.7-8.7-24.6-9.7-39.5
			c-1.8-27.6,7.4-52.4,19-69.6c6.1-9,12.5-17.2,20.5-23.8c7.6-6.4,15.5-13.9,26.8-17.5c30.1-17.1,85.3-13.9,122.5-4.5
			c22.5,5.7,42.1,13,59.6,22.3c35.3,18.9,65.4,44.4,88.2,75.6c22.5,30.7,41.6,68,49.5,114.3c7.3,42.9,3.4,91.5-8.9,126.2
			c-0.9,2.4-2,5-3,7.4C647,490,646.3,492.8,644.2,494.1z M309.8,322.4c12.8,13.1,27,23.6,45.4,29.4c6.8,2.1,14,4.3,22,4.8
			c31.1,2,54.2-7,71.1-19c4.7-3.4,9.6-7.1,13.4-10.8c22.6-21.8,37.6-57.3,30.9-96.1c-1.7-9.8-5.9-20.5-10.4-29
			c-14.8-28-40.2-49.5-76.3-55.5c-17-2.8-34.6-1-49.9,3.7c-18,5.6-30.4,15.1-41.7,26.1c-14.6,14.1-25.2,32.9-30.5,55.5
			C278.9,270.6,291.1,303.3,309.8,322.4z"/>
		<path class="st0" d="M455.4,171.6c18.7,18.9,33.5,38.7,35.7,71.5c2.1,31.1-10.2,57.2-25,74.5c-2,2.3-10.5,11.3-12.7,13
			c-8.6,7-21.6,14.7-33.5,18.6c-13.1,4.3-28.2,6.5-45.1,4.5c-28.4-3.5-51.9-18.6-67-36.9c-4.3-5.2-9-11.9-11.9-18.6
			c-3.1-7.2-6.7-14-8.2-22c-2.5-13.2-4.1-27.2-1.9-40.6c4.4-26.6,16.1-45.1,32-60.7c2.6-2.5,5.7-5.3,8.2-7.1
			c14-10.3,31.6-19.6,53.6-21.2C415.1,144.1,435.7,157.9,455.4,171.6z M384.7,350c11.7,0.8,21.2-2.1,29.8-4.5
			c6.3-1.8,12-4.4,17.5-7.1c11-5.4,20.9-12.2,28.7-20.9c10.2-11.2,19-26.1,23.1-43.2c4.5-18.8,3.6-40.6-2.6-57.7
			c-12.3-34-44.1-62.2-88.6-64.8c-13.5-0.8-26.2,1.2-37.2,5.2c-13.8,5-26.3,13.7-36.5,23.8c-10.4,10.3-18.5,22.6-23.5,36.9
			c-11.6,33.2-3.9,70.7,13.8,93.5C326.7,332,349.7,347.6,384.7,350z"/>
		<path class="st1" d="M309.1,311.3c-17.7-22.8-25.4-60.2-13.8-93.5c5-14.3,13-26.5,23.5-36.9c10.2-10.1,22.7-18.8,36.5-23.8
			c11-4,23.8-6,37.2-5.2c44.6,2.6,76.3,30.8,88.6,64.8c6.2,17.1,7.1,38.9,2.6,57.7c-4.1,17.1-12.9,32-23.1,43.2
			c-7.8,8.6-17.6,15.5-28.7,20.9c-5.5,2.7-11.2,5.3-17.5,7.1c-8.6,2.4-18.1,5.3-29.8,4.5C349.7,347.6,326.7,332,309.1,311.3z"/>
		<path class="st0" d="M318.4,153.4c0.4,1.6-4.6,3.8-6.7,5.6c-5.8,5-12.1,12.1-17.5,18.6c-1.8,2.1-4.3,3.9-6,6
			c-5.2,6.4-10.4,13.6-14.5,21.2c-3.1,5.8-5.8,12.1-8.2,19c-3.7,10.5-5.6,24.4-4.5,40.6c0.9,13.3,4.4,26.4,8.6,37.6
			c4.1,11.1,10,21.8,16,30.2c10.2,14.1,20.4,24.9,34.3,35c4.4,3.2,9.3,5.7,14.1,8.9c3.3,2.2,6.6,5.8,10.1,8.6
			c25.2,20.1,46.4,50.9,45.8,94.2c-0.2,16.4-4.6,32.3-9.7,44.3c-3.2,7.5-8.4,15.8-14.2,23.1c-13.7,17.4-30.3,30.8-53.6,39.1
			c-4.3,1.5-9.2,3.6-13.8,4.5c-47.3,9.4-85.3-10.3-107.6-34.3c-3.3-3.6-6-7.7-9.7-11.2c-23.7-38.3-42.4-86.8-42.1-147.1
			c0.4-62.3,23.5-111.1,49.2-148.6c19.1-28.4,45.4-54.1,76-72.6c5-3,10.2-6.2,15.6-8.9c9.4-4.7,18.3-9.4,29.4-12.7
			C312.2,153.7,315,153.7,318.4,153.4z M259.2,370.9c-33.3,6-58,24.2-74.1,49.1c-16.1,25.1-22.6,64.2-8.6,97.2
			c2.9,6.9,7.5,14.3,11.9,20.9c4.4,6.4,9.5,13.3,14.9,18.2c6.2,5.7,13.9,9.6,21.6,14.2c7.7,4.5,16.7,8.1,25.7,10.1
			c55.4,12.3,97.6-17.1,118-52.9c8.9-15.6,14.8-34.4,13-58.8c-2.7-37.6-20-58.5-42.8-78.6c-18.4-12.3-43-22.2-72.2-20.1
			C264.4,370.5,262.2,371.1,259.2,370.9z"/>
		<path class="st0" d="M218.2,586.1c4.2-0.8,7.1,2,10.8,3.4c9.7,3.5,20.5,4.8,31.3,7.4c35.3,8.5,69.1-5,89-20.9
			c22.7-16.9,39.4-37.4,49.5-65.5c1.8-4.9,3.3-9.7,4.5-14.9c1.2-5.2,1.4-10.6,2.2-16.8c0.7-5.3,1.4-9.9,2.2-14.8
			c0.7-4.3,1.6-8.9,2.3-12.8c7.3-39.1,31.1-68.1,63.3-84.1c12.1-6,26.8-11.4,42.4-12.3c20.9-1.2,37.5,3,52.1,8.9
			c27.9,11.2,49.5,32.2,61.8,60.3c6.1,14.1,10.7,33.1,9.3,51.8c-1.7,23.3-10.2,42.2-20.1,59.6c-9.8,17.2-21.4,32.4-34.3,45.4
			c-23.2,23.4-48.9,42.5-82.3,57c-22.5,9.7-49.4,18-78.9,20.5c-24.8,2.1-48.5,1.3-73-3.4c-43.8-8.4-79.3-26.2-110.6-48.4
			C233,599.4,224.8,593.6,218.2,586.1z M501.2,365.6c-20.6,4.4-40.9,16.6-53.2,29.4c-13.9,14.4-24.2,30.6-29,53.6
			c-5.4,25.9,0,50.9,8.9,69.3c9.1,18.6,22.1,33.3,39.5,43.6c12.3,7.2,27.8,14,46.2,15.3c14.7,1.1,28.6-0.2,40.6-4.1
			c4.9-1.6,9.6-4.4,14.5-6.7c4.9-2.3,10-4.4,14.2-7.1c1.2-0.8,2.1-2.4,3.4-3.4c1.4-1.1,3.2-1.6,4.5-2.6
			c20.9-17.1,39.3-44.7,39.8-81.5c0.3-22-5.7-40-14.1-54.7c-17.4-30.3-50.3-55-98.3-52.9C511.9,364,506.7,364.5,501.2,365.6z"/>
		<path class="st0" d="M622.2,437.9c7.9,22.7,4.9,53.1-3.7,73.7c-0.7,1.7-2,3.4-3,5.2c-9.9,19.7-23.3,33.7-43.2,45.1
			c-12.4,7.1-26.9,11.1-43.9,12.3c-25.1,1.8-45.7-6.5-61.1-16.8c-11.4-7.6-21.5-16.7-29.4-28.3c-15.8-23.3-24.2-57.9-13-92
			c5.2-15.8,14.9-30.1,25.7-40.6c11.3-11,24.2-19.1,40.6-25.7c18.7-6,45.2-7.1,64.8,0c16.7,6.1,30.6,16,41.3,25.7
			c2.4,3,5,6.2,7.4,8.6C613.3,413.5,617.6,425.8,622.2,437.9z M440.2,415.9c-8.2,12.8-16.8,33.7-16.4,55.9
			c0.3,17.3,4.9,32.6,11.2,44.7c10.2,19.6,25.8,34.8,46.2,43.9c10.3,4.6,22.8,9,35.7,9.3c6.1,0.1,12.2-0.8,17.9-1.5
			c12.7-1.5,23-4.9,32.4-9.3c4.9-2.3,9.5-5.7,13.8-8.6c24.9-17,45.5-49.3,41.3-90.8c-2.5-25.5-14.7-46-29-59.9
			c-17.5-17-43.3-31.5-79.3-28.3C479.5,374.3,454.8,393.1,440.2,415.9z"/>
		<path class="st1" d="M513.9,371.2c36-3.2,61.8,11.3,79.3,28.3c14.4,13.9,26.5,34.5,29,59.9c4.1,41.5-16.5,73.8-41.3,90.8
			c-4.2,2.9-8.9,6.3-13.8,8.6c-9.4,4.4-19.7,7.8-32.4,9.3c-5.6,0.7-11.7,1.6-17.9,1.5c-12.9-0.3-25.4-4.7-35.7-9.3
			c-20.4-9.1-36-24.3-46.2-43.9c-6.3-12.1-10.9-27.4-11.2-44.7c-0.4-22.2,8.2-43.1,16.4-55.9C454.8,393.1,479.5,374.3,513.9,371.2z"
			/>
		<path class="st0" d="M269.6,372.3c31.2-2.2,55,10.4,71.5,24.2c14,11.7,23.2,23.4,30.5,41c4.3,10.2,6.6,19.8,7.4,33.1
			c1.1,16.4-3.1,31.5-8.2,44.3c-14.4,36.1-47.7,62.6-91.6,65.9c-2.7,0.2-6.4,0.2-9.3,0c-42.2-3.1-69.6-24.8-86.4-54.4
			c-8.1-14.2-13.2-33-12.3-53.6c1.4-31.3,13.4-52.3,30.2-68.9C217.9,387.8,238.8,374.5,269.6,372.3z M374.3,465.8
			c-0.5-5.6-2.2-11.7-3.7-17.1c-7.5-27.2-24.8-47-46.2-58.8c-9.1-5.1-19.8-10-30.9-11.5c-7.5-1-16.3-2.2-24.6-1.5
			c-13.9,1.1-24.4,4.9-36.1,8.9c-24.4,13.7-44.6,33.7-53.2,62.9c-7.2,24.4-3,54.7,6.7,73.4c7,13.5,18.4,26.6,31.3,35.7
			c13.2,9.4,30.8,16.6,49.2,17.9c5.2,0.4,10.9,0.6,15.3,0c10.7-1.5,20.6-3.3,29.8-6.7c18.3-6.7,31.6-18.8,43.2-32.4
			C367.9,517.5,376.7,495.1,374.3,465.8z"/>
		<path class="st1" d="M354.9,536.5c-11.6,13.6-24.9,25.7-43.2,32.4c-9.2,3.4-19.1,5.2-29.8,6.7c-4.3,0.6-10.1,0.4-15.3,0
			c-18.3-1.3-35.9-8.5-49.2-17.9c-12.9-9.2-24.2-22.2-31.3-35.7c-9.7-18.6-13.9-49-6.7-73.4c8.6-29.2,28.9-49.3,53.2-62.9
			c11.7-4,22.2-7.8,36.1-8.9c8.3-0.7,17.1,0.5,24.6,1.5c11.1,1.5,21.8,6.5,30.9,11.5c21.3,11.9,38.7,31.6,46.2,58.8
			c1.5,5.5,3.2,11.5,3.7,17.1C376.7,495.1,367.9,517.5,354.9,536.5z"/>
		<path class="st2" d="M230.2,170.2c39.9-29.3,90-50.9,153.4-55.9c10.9-0.9,21.9-0.9,33.5,0c78.4,5.8,135.3,37,178.7,77.1
			c47.4,46.2,82.9,106,89,193.2c0.9,12.4,0.3,27.3-0.7,39.8c-2.2,27.2-9.1,51.9-17.1,74.5c-23.4,66-69.2,116.7-125.9,148.9
			c-9.4,5.3-20,10.3-30.5,15.3c-29.8,13.9-71.4,24.7-113.9,22.7c-15.4-0.7-29-1.5-42.4-3.4c-26.1-3.7-49-11.7-70.7-20.8
			c-53.6-22.6-92.8-59-123.6-105c-18.5-27.6-31.8-59.9-40.2-97.2c-8.4-37-7.3-87.9,1.9-123.6C140.3,262.4,177.6,210.6,230.2,170.2z
			 M647.9,487.8c1-2.4,2.1-5,3-7.4c12.3-34.7,16.3-83.3,8.9-126.2c-7.9-46.3-27-83.7-49.5-114.3c-22.8-31.1-53-56.7-88.2-75.6
			c-17.5-9.4-37-16.6-59.6-22.3c-37.2-9.4-92.4-12.6-122.5,4.5c-11.3,3.6-19.2,11.1-26.8,17.5c-8,6.7-14.4,14.8-20.5,23.8
			c-11.6,17.2-20.8,42-19,69.6c1,14.9,4.8,28.7,9.7,39.5c5.1,11.2,10.8,21.4,19,30.2c11.2,12.1,26.4,24.3,43.2,30.5
			c5.9,2.2,12.6,4.7,18.6,6c18.1,3.7,37.9,1.3,54.4-1.9c10.9-2.1,20.4-5.2,29.8-8.6c4.5-1.6,8.8-3.9,13.4-5.6
			c14.3-5.2,28-11.4,45.4-12.7c6.2-0.5,14.1-0.4,19.7,0c22.1,1.8,43.6,10.3,57.7,20.1c2.3,1.6,4.9,2.6,7.1,4.1
			c8.6,5.8,16,13.5,23.1,21.6c7,8,13.7,17.5,17.9,26.8c2.9,6.4,4.7,15,7.4,23.5c6.2,19.1,4.8,41.2,4.1,63.3
			C646.3,492.8,647,490,647.9,487.8z M309.5,154.5c-11.1,3.3-20,8-29.4,12.7c-5.4,2.7-10.6,5.9-15.6,8.9
			c-30.5,18.5-56.9,44.2-76,72.6c-25.6,37.5-48.8,86.3-49.2,148.6c-0.4,60.3,18.4,108.8,42.1,147.1c3.7,3.4,6.4,7.6,9.7,11.2
			c22.3,24,60.3,43.7,107.6,34.3c4.6-0.9,9.5-2.9,13.8-4.5c23.4-8.3,39.9-21.7,53.6-39.1c5.7-7.3,11-15.6,14.2-23.1
			c5.1-12,9.5-27.9,9.7-44.3c0.6-43.3-20.6-74.1-45.8-94.2c-3.5-2.8-6.7-6.3-10.1-8.6c-4.9-3.3-9.7-5.7-14.1-8.9
			c-13.9-10.1-24.1-20.9-34.3-35c-6.1-8.4-11.9-19.1-16-30.2c-4.1-11.2-7.6-24.3-8.6-37.6c-1.1-16.2,0.8-30.1,4.5-40.6
			c2.4-6.9,5-13.2,8.2-19c4.1-7.6,9.3-14.8,14.5-21.2c1.7-2.1,17.7-19.6,23.5-24.6c2.1-1.8,7.1-4,6.7-5.6
			C315,153.7,312.2,153.7,309.5,154.5z M239.8,606.5c31.3,22.2,66.7,40.1,110.6,48.4c24.5,4.7,48.2,5.5,73,3.4
			c29.6-2.5,56.5-10.8,78.9-20.5c33.4-14.4,59.1-33.6,82.3-57c12.9-13,24.4-28.3,34.3-45.4c9.9-17.3,18.4-36.3,20.1-59.6
			c1.4-18.7-3.2-37.7-9.3-51.8c-12.3-28.1-33.9-49.1-61.8-60.3c-14.6-5.9-31.3-10.2-52.1-8.9c-15.6,0.9-30.4,6.3-42.4,12.3
			c-32.1,16.1-56,45-63.3,84.1c-0.7,3.8-1.4,7.8-2.1,12.1c-0.8,4.9-1.6,10.1-2.3,15.4c-0.9,6.2-1.1,11.5-2.2,16.8
			c-1.2,5.2-2.7,10-4.5,14.9c-10.2,28.2-26.8,48.6-49.5,65.5c-19.9,15.8-53.7,29.4-89,20.9c-10.8-2.6-21.6-4-31.3-7.4
			c-3.7-1.3-6.6-4.2-10.8-3.4C224.8,593.6,233,599.4,239.8,606.5z"/>
		<path class="st2" d="M283.8,231.6c5.4-22.6,16-41.4,30.5-55.5c11.3-11,23.7-20.5,41.7-26.1c15.3-4.7,32.9-6.5,49.9-3.7
			c36.2,5.9,61.5,27.5,76.3,55.5c4.5,8.5,8.7,19.2,10.4,29c6.7,38.8-8.3,74.3-30.9,96.1c-3.9,3.7-8.7,7.4-13.4,10.8
			c-16.9,12-40.1,21-71.1,19c-8-0.5-15.2-2.7-22-4.8c-18.5-5.8-32.7-16.3-45.4-29.4C291.1,303.3,278.9,270.6,283.8,231.6z
			 M379.8,146.7c-22,1.6-39.7,11-53.6,21.2c-2.5,1.8-5.6,4.6-8.2,7.1c-15.9,15.6-27.6,34.1-32,60.7c-2.2,13.4-0.6,27.4,1.9,40.6
			c1.5,7.9,5.1,14.8,8.2,22c2.9,6.7,7.6,13.4,11.9,18.6c15.1,18.3,38.6,33.4,67,36.9c16.9,2.1,31.9-0.1,45.1-4.5
			c11.9-4,24.9-11.6,33.5-18.6c2.1-1.7,10.7-10.7,12.7-13c14.7-17.3,27-43.4,25-74.5c-2.2-32.8-17-52.6-35.7-71.5
			C435.7,157.9,415.1,144.1,379.8,146.7z"/>
		<path class="st1" d="M604.7,405.1c7.5,9.2,13.3,20.2,17.5,32.8C617.6,425.8,611.8,414.8,604.7,405.1z"/>
		<path class="st2" d="M518,363.8c48-2.1,80.9,22.5,98.3,52.9c8.5,14.8,14.5,32.7,14.1,54.7c-0.5,36.8-18.9,64.4-39.8,81.5
			c-1.2,1-3,1.5-4.5,2.6c-1.3,1-2.2,2.6-3.4,3.4c-4.2,2.7-9.3,4.8-14.2,7.1c-4.9,2.3-9.6,5.1-14.5,6.7c-12,3.9-25.9,5.2-40.6,4.1
			c-18.3-1.3-33.9-8-46.2-15.3c-17.3-10.2-30.4-24.9-39.5-43.6c-8.9-18.3-14.3-43.4-8.9-69.3c4.8-23,15.2-39.3,29-53.6
			c12.4-12.8,32.6-25,53.2-29.4C506.7,364.5,511.9,364,518,363.8z M604.7,405.1c-2.3-2.4-5.1-5.6-7.4-8.6
			c-10.7-9.6-24.7-19.6-41.3-25.7c-19.5-7.1-46.1-6-64.8,0c-16.3,6.6-29.3,14.7-40.6,25.7c-10.8,10.5-20.5,24.7-25.7,40.6
			c-11.2,34.1-2.8,68.7,13,92c7.9,11.6,18,20.7,29.4,28.3c15.3,10.3,36,18.6,61.1,16.8c17-1.2,31.5-5.2,43.9-12.3
			c19.8-11.3,33.3-25.4,43.2-45.1c0.9-1.9,2.2-3.5,3-5.2c8.7-20.7,12.9-51.5,3.7-73.7C617.1,425.5,611.8,414.5,604.7,405.1z"/>
		<path class="st2" d="M266.7,370.1c29.3-2.1,53.9,7.8,72.2,20.1c22.8,20,40.1,40.9,42.8,78.6c1.7,24.4-4.1,43.2-13,58.8
			c-20.4,35.8-62.6,65.1-118,52.9c-9-2-18-5.6-25.7-10.1c-7.7-4.5-15.4-8.5-21.6-14.2c-5.4-5-10.5-11.8-14.9-18.2
			c-4.5-6.5-9-13.9-11.9-20.9c-14-33-7.6-72.1,8.6-97.2c16.1-25,40.8-43.2,74.1-49.1C262.2,371.1,264.4,370.5,266.7,370.1z
			 M201.5,404c-16.8,16.5-28.7,37.6-30.2,68.9c-0.9,20.7,4.2,39.4,12.3,53.6c16.8,29.6,44.2,51.2,86.4,54.4c2.9,0.2,6.6,0.2,9.3,0
			c43.9-3.3,77.2-29.8,91.6-65.9c5.1-12.8,9.3-27.9,8.2-44.3c-0.9-13.3-3.2-23-7.4-33.1c-7.4-17.6-16.5-29.2-30.5-41
			c-16.5-13.8-40.3-26.4-71.5-24.2C238.8,374.5,217.9,387.8,201.5,404z"/>
	</g>
</g>
<g id="tekst">
	<path class="st0" d="M681.4,571.2c1.8,4.4,1.1,11.3,1.9,16.8c7,6.4,24.3-5,30.5,3.7c-5.2,5-5.3,15-13.4,17.1
		c-4.3-0.6-10-3.5-13.4-1.5c-6.6,3.8-0.7,21-2.2,28.3c-14.6-8-28.7-16.5-43.2-24.6c-1.4-1.9-2.8-4-3.7-6.3
		c4.5-10.9,8-22.8,15.3-30.9C662.2,572.9,672.7,569.9,681.4,571.2z M656.5,592.4c4.3,5,7.1,11.5,13,14.9c0.6-6-0.2-13.7-2.6-17.9
		C663.5,589,657.7,588.7,656.5,592.4z"/>
	<path class="st0" d="M188.5,629.6c-10.5,11.6-22.5,21.7-34.6,31.6c-7.9-0.7-17.1-0.3-24.2-1.9c-2.2-5.3-5.4-9.7-8.2-14.5
		c2.5-10.2,5-20.3,7.8-30.2c9.3,0.2,14.9,7.2,19.7,13c-2.6,5.9-6.7,10.1-7.4,17.9c5.6,2.9,9.8-4.9,13.4-10.1c1.4-2,3.7-4.2,5.6-7.1
		c1.4-2.2,4.3-6.8,4.1-8.6c-0.3-1.9-1.5-1.3-2.6-2.6c-2.2-2.4-4.4-6.4-7.1-8.9c0.5-4,3.9-7.6,7.1-7.4c3,0.1,7.5,6.3,10.4,9.7
		c3.2,3.6,6.9,8.2,9.3,10.8C184.1,624,187.6,625.9,188.5,629.6z"/>
	<path class="st0" d="M639.7,634.8c-6.9-0.1-16.4,1.7-15.6,8.9c0.2,1.6,2.3,4.9,4.5,4.8c3.1,0,2.6-4,5.6-4.8
		c3.1,0.6,4.9,2.5,6.3,4.8c-3,4-4.5,11.9,1.9,13.4c5.1-5.2,6.8-13.8,10-20.9c5.8,2.8,11.8,5.3,15.6,10.1c0.6,5.6-2,9.8-4.8,13
		c-2.6,2.9-6.5,6.5-10.1,10.1c-5.1,5.1-12.2,12.6-19.4,6.7c-2.9-2.4-6.2-6.7-9.3-9.7c-1.1-1.1-2.8-1.7-3.7-2.6
		c-4.2-4.3-7.4-9.6-11.2-13c-3.1-2.8-6.6-5.4-8.2-8.9c-0.1-2.3,1.7-2.8,1.5-5.2c9.1-8.3,16.8-18,26.8-25.3
		c2.3,0.6,11.9,8.9,12.3,10.8C642.5,629.6,640.2,631.7,639.7,634.8z"/>
	<path class="st0" d="M210.4,657.2c-4,2.1-6.2,5.9-9.3,9.3c-5,5.4-11.6,9.3-16,15.3c-0.1,7.5,3.9,11.7,12.3,9.7
		c7.2-9.6,13.3-20.4,19-31.7c10.2,0.7,13.8,8.1,19,13.8c-8.8,10.8-19,20.2-29.4,29.4c-9.6,1.4-19.7,2.4-29.4,2.6
		c-3.7-3.5-4.6-9.2-6.7-15.6c-1.2-3.6-3-6.9-2.6-9.7c0.4-2.7,4.3-6.5,6.7-9.7c6.4-8.5,15.5-21.6,20.5-28.7c0.3-0.4,0.5-1,1.1-1.1
		C205,641.8,209.3,647.9,210.4,657.2z"/>
	<path class="st0" d="M602.5,666.5c-8.3,3.6-19.4,4.4-25.3,10.4c1,6.4,5.6,4.4,10.4,2.6c7.1-2.6,17.8-4.7,23.8-6.7
		c2.6,3.1,7.5,6.6,9.7,10.4c2.1,3.7,0.7,10.8-0.7,16c-1.9,6.6-7.4,11.9-11.2,15.3c-10.7,2.5-19.2,9.1-30.9,9.3
		c-1.5-6.2-4.2-13.2-4.8-19c8.1-3,20.9-1.2,27.2-6c0-2.7-0.8-4.5-1.9-6c-6.8-0.8-12.1,3-16.8,5.6c-6.3,0.5-10.2-1.5-15.3-2.2
		c-3.8-6.9-6.5-14.8-9.3-22.7c8.1-8.9,18.7-15.3,29.8-21.2c5.4,2.5,9.9,6,14.5,9.3C602.2,663.1,601.8,665.3,602.5,666.5z"/>
	<path class="st0" d="M270.7,689.2c2.4,7.8,4.7,15.9,6.7,25c0.6,2.7,1.8,6.8,1.5,8.9c-0.2,1.3-3,5.3-4.1,6.7
		c-5.1,6.5-13,11.8-19,17.1c-15.5-4.4-28.6-11.1-38-21.6c3.8-8.2,9-15.5,14.2-22.7c5.1-7.2,9.8-14.8,15.3-21.6
		c0.1-0.4,0.7-0.2,0.7-0.7C258,680.9,263,686.4,270.7,689.2z M255.9,694.8c-1.4-0.4-1.6,0.8-1.9,1.1c-4.9,7-9.8,19.3-11.5,29.8
		c4.7,3.1,15,2.2,17.9-1.9C260.6,712.4,259.7,702.1,255.9,694.8z"/>
	<path class="st0" d="M548.1,700.8c-4.8,0.2-11.5-1.2-16.8,0c-0.9,0.2-5.3,1.7-5.6,4.1c-0.5,4.1,4.8,5,7.8,5.2
		c7,0.6,14.3-3.6,20.5-1.5c3,1,11.5,10.7,11.9,14.5c0.7,7.2-6.7,11.1-8.9,18.2c-2.6,1.5-4.9,3.3-7.1,5.2
		c-10.6,1.8-17.9,6.9-30.9,6.3c-1.8-0.9-2.5-3-4.1-4.1c0.4-6.9-0.3-14.9,1.9-20.1c7.1,1.7,18.1,4.4,25,0.7c0.5-2.2-0.9-2.6-0.7-4.5
		c-7.6-2.5-14.9,1.4-23.1,0.7c-3.8-3-7.9-5.8-11.2-9.3c-1.4-6.4-1.3-13.6,0-20.1c7.5-4.8,20.6-13.1,29.8-15.3
		c3.8-0.9,9,9.6,11.5,11.2C548.1,695,548.1,697.9,548.1,700.8z"/>
	<path class="st0" d="M338.1,707.1c0.7,5.9,2.9,13.1,3.7,20.9c0.9,8,3.7,20.7,0,25.3c-1.4,1.7-4.5,2.7-6.3,4.5
		c-3,2.8-6.1,6-10.8,8.2c-5.9-2.7-12.2-1.4-17.5-3.4c-3.7-1.3-6.8-7.4-9.3-10.4c-3.4-4-6.3-7.6-8.6-11.2c-0.4-3.2,1.4-4.3,1.5-7.1
		c2.8-3.8,6.6-8.1,9.7-13.4c3.3-5.8,5.5-14.7,10.4-17.9C319.3,697.3,330,704.7,338.1,707.1z M314.3,729.8c-1.5,2.6-4,5.3-4.5,6.7
		c-1.8,5.1,2.7,11.3,7.4,12.7c8.3-2.2,8.3-8.3,6.3-16.8c-1-4.4-2.7-10.4-4.5-10.8C317.5,723.8,316.4,726.2,314.3,729.8z"/>
	<path class="st0" d="M486.3,703.4c5.9,6.3,10,16.9,14.5,25.7c1.7,3.2,4.1,6.3,4.1,9.3c0,3.1-3.3,7.3-5.2,11.2
		c-2.4,4.8-3.4,10.1-7.4,12.7c-6.1,3.9-15.8,3.1-24.9,3c-7.2-4.3-13.2-9.6-19.4-14.9c0-9.2,3.4-18.4,5.2-26.8c0.6-3,0.5-6.6,1.5-8.9
		c1.3-3.1,5-5.4,6.3-8.2C468.2,704.1,476.7,703.2,486.3,703.4z M471.8,748c0.6,0.4,3.3-0.4,4.5-0.7c2-3.2,4.7-5.4,4.8-9.3
		c0.2-4-2.6-6.9-4.1-8.9c-2.3-3.1-2.8-7.5-5.2-9.3c-0.4,0-0.7,0-1.1,0c-3.5,5.8-6,12.6-7.1,20.9C466.4,743,468.2,746.5,471.8,748z"
		/>
	<path class="st0" d="M426,715.3c-4.5,10-7.8,23.2-7.8,36.5c7.4,0.8,13.6-2.8,20.8-3.4c2.1,5.2,0.7,13.9,2.6,19.4
		c-6.5,3.9-16.3,5.4-26.4,3.7c-5.2-0.9-10.9-1.7-11.9-6.3c-1.4-6.3-0.1-12-0.7-19.7c-0.9-10.8-4.3-21.1-3.4-28.7
		c0.2-1.9,1.6-2.7,2.2-4.1C408.3,711,420.4,712.2,426,715.3z"/>
	<g>
	</g>
	<g>
	</g>
	<g>
	</g>
	<g>
	</g>
	<g>
	</g>
	<g>
	</g>
	<g>
	</g>
	<g>
	</g>
	<g>
	</g>
	<g>
	</g>
	<g>
	</g>
	<g>
	</g>
	<g>
	</g>
	<g>
	</g>
	<g>
	</g>
</g>
</svg>
